<svg width="16" height="15" viewBox="0 0 16 15" fill="none" xmlns="http://www.w3.org/2000/svg">
<path fill-rule="evenodd" clip-rule="evenodd" d="M1.94806 0.301938C1.7348 0.103218 1.45273 -0.00496705 1.16128 0.00017527C0.869827 0.00531759 0.591749 0.123386 0.38563 0.329505C0.17951 0.535625 0.0614424 0.813702 0.0563001 1.10515C0.0511578 1.39661 0.159343 1.67868 0.358063 1.89194L5.93806 7.47194L0.358063 13.0519C0.247532 13.1549 0.158879 13.2791 0.0973912 13.4171C0.0359033 13.5551 0.00284026 13.7041 0.000175082 13.8552C-0.00249009 14.0062 0.0252969 14.1563 0.0818784 14.2963C0.13846 14.4364 0.222677 14.5637 0.329505 14.6705C0.436333 14.7773 0.563584 14.8615 0.703666 14.9181C0.843748 14.9747 0.993792 15.0025 1.14485 14.9998C1.2959 14.9972 1.44487 14.9641 1.58287 14.9026C1.72087 14.8411 1.84507 14.7525 1.94806 14.6419L7.52806 9.06194L13.1081 14.6419C13.2111 14.7525 13.3353 14.8411 13.4733 14.9026C13.6113 14.9641 13.7602 14.9972 13.9113 14.9998C14.0623 15.0025 14.2124 14.9747 14.3525 14.9181C14.4925 14.8615 14.6198 14.7773 14.7266 14.6705C14.8334 14.5637 14.9177 14.4364 14.9742 14.2963C15.0308 14.1563 15.0586 14.0062 15.0559 13.8552C15.0533 13.7041 15.0202 13.5551 14.9587 13.4171C14.8972 13.2791 14.8086 13.1549 14.6981 13.0519L9.11806 7.47194L14.6981 1.89194C14.8968 1.67868 15.005 1.39661 14.9998 1.10515C14.9947 0.813702 14.8766 0.535625 14.6705 0.329505C14.4644 0.123386 14.1863 0.00531759 13.8948 0.00017527C13.6034 -0.00496705 13.3213 0.103218 13.1081 0.301938L7.52806 5.88194L1.94806 0.301938Z" fill="white"/>
</svg>
