<svg width="20" height="20" viewBox="0 0 20 20" fill="none" xmlns="http://www.w3.org/2000/svg">
<path d="M19.0001 10.0058C18.7349 10.0058 18.4806 10.1112 18.293 10.2987C18.1055 10.4862 18.0001 10.7406 18.0001 11.0058V17.0058C18.0001 17.271 17.8948 17.5254 17.7072 17.7129C17.5197 17.9004 17.2653 18.0058 17.0001 18.0058H3.00012C2.73491 18.0058 2.48055 17.9004 2.29302 17.7129C2.10548 17.5254 2.00012 17.271 2.00012 17.0058V3.0058C2.00012 2.74058 2.10548 2.48623 2.29302 2.29869C2.48055 2.11116 2.73491 2.0058 3.00012 2.0058H9.00012C9.26534 2.0058 9.51969 1.90044 9.70723 1.71291C9.89477 1.52537 10.0001 1.27101 10.0001 1.0058C10.0001 0.740582 9.89477 0.486228 9.70723 0.298692C9.51969 0.111155 9.26534 0.00579834 9.00012 0.00579834H3.00012C2.20447 0.00579834 1.44141 0.321869 0.878802 0.884478C0.316193 1.44709 0.00012207 2.21015 0.00012207 3.0058V17.0058C0.00012207 17.8014 0.316193 18.5645 0.878802 19.1271C1.44141 19.6897 2.20447 20.0058 3.00012 20.0058H17.0001C17.7958 20.0058 18.5588 19.6897 19.1214 19.1271C19.6841 18.5645 20.0001 17.8014 20.0001 17.0058V11.0058C20.0001 10.7406 19.8948 10.4862 19.7072 10.2987C19.5197 10.1112 19.2653 10.0058 19.0001 10.0058ZM4.00012 10.7658V15.0058C4.00012 15.271 4.10548 15.5254 4.29302 15.7129C4.48055 15.9004 4.73491 16.0058 5.00012 16.0058H9.24012C9.37173 16.0066 9.50219 15.9813 9.62403 15.9316C9.74587 15.8818 9.85668 15.8085 9.95012 15.7158L16.8701 8.7858L19.7101 6.0058C19.8038 5.91284 19.8782 5.80223 19.929 5.68038C19.9798 5.55852 20.0059 5.42781 20.0059 5.2958C20.0059 5.16379 19.9798 5.03308 19.929 4.91122C19.8782 4.78936 19.8038 4.67876 19.7101 4.5858L15.4701 0.295798C15.3772 0.20207 15.2666 0.127676 15.1447 0.0769069C15.0228 0.0261382 14.8921 0 14.7601 0C14.6281 0 14.4974 0.0261382 14.3755 0.0769069C14.2537 0.127676 14.1431 0.20207 14.0501 0.295798L11.2301 3.1258L4.29012 10.0558C4.19744 10.1492 4.12412 10.2601 4.07435 10.3819C4.02459 10.5037 3.99936 10.6342 4.00012 10.7658ZM14.7601 2.4158L17.5901 5.2458L16.1701 6.6658L13.3401 3.8358L14.7601 2.4158ZM6.00012 11.1758L11.9301 5.2458L14.7601 8.0758L8.83012 14.0058H6.00012V11.1758Z" fill="#3ACCD2"/>
</svg>
