<svg width="21" height="18" viewBox="0 0 21 18" fill="none" xmlns="http://www.w3.org/2000/svg">
<path d="M10.8085 0.14779C10.6857 0.0520139 10.5344 0 10.3786 0C10.2228 0 10.0715 0.0520139 9.94866 0.14779L0 7.90526L0.860556 8.99359L2.07697 8.04511V16.6154C2.0777 16.9824 2.22381 17.3341 2.48333 17.5936C2.74284 17.8532 3.0946 17.9993 3.46161 18H17.308C17.6751 17.9993 18.0268 17.8532 18.2863 17.5936C18.5458 17.3341 18.692 16.9824 18.6927 16.6154V8.05134L19.9091 8.99982L20.7697 7.91149L10.8085 0.14779ZM11.7695 16.6154H9.00018V11.0768H11.7695V16.6154ZM13.1541 16.6154V11.0768C13.1537 10.7097 13.0077 10.3577 12.7482 10.0981C12.4886 9.8385 12.1366 9.69251 11.7695 9.69214H9.00018C8.63307 9.69251 8.28109 9.8385 8.0215 10.0981C7.76191 10.3577 7.61591 10.7097 7.61554 11.0768V16.6154H3.46161V6.96578L10.3848 1.57259L17.308 6.9727V16.6154H13.1541Z" fill="white"/>
</svg>
